<svg id="Layer_1" data-name="Layer 1" xmlns="http://www.w3.org/2000/svg" viewBox="0 0 400.42 400.92"><defs><style>.cls-1{fill:#81c342;}.cls-2{fill:#fff;}</style></defs><title>central_park</title><rect class="cls-1" width="400.42" height="400.92"/><path class="cls-2" d="M57.62,164.13l1.65,11.45a11.18,11.18,0,0,0-7.8-3.05,12.09,12.09,0,0,0-6,1.56,11.51,11.51,0,0,0-4.37,4.36,12.44,12.44,0,0,0-1.61,6.28,11.23,11.23,0,0,0,1.86,5.78,10.9,10.9,0,0,0,4.44,3.84,13.87,13.87,0,0,0,6.1,1.33,12.36,12.36,0,0,0,7.5-3.05l-1.55,11.05a14.88,14.88,0,0,1-5.2,1.45,24.08,24.08,0,0,1-2.65.15,21.43,21.43,0,0,1-10.84-2.84,20.9,20.9,0,0,1-7.78-7.67,20.41,20.41,0,0,1-2.83-10.49,21.27,21.27,0,0,1,2.61-10.35,21,21,0,0,1,17.29-11h2.15A22.24,22.24,0,0,1,57.62,164.13Z" transform="translate(0.42 0.27)"/><path class="cls-2" d="M95.11,182.69,75.86,194.77a5.59,5.59,0,0,0,1.74,1.13,10,10,0,0,0,4.22.68,10.28,10.28,0,0,0,3.26-.85,16.62,16.62,0,0,0,2.76-1.5c.76-.53,1.13-.83,1.13-.91l4.8,7.35a33.52,33.52,0,0,1-5,2.87,17.84,17.84,0,0,1-16.17-.3,15.8,15.8,0,0,1-6.1-5.73,15.56,15.56,0,0,1-2.29-8.08,16.56,16.56,0,0,1,7-13.47,15.26,15.26,0,0,1,7.34-2.72c.86-.07,1.51-.1,1.94-.1a14.35,14.35,0,0,1,6.32,1.34,16.16,16.16,0,0,1,4.51,3.12,18.58,18.58,0,0,1,2.67,3.33C94.69,182,95,182.56,95.11,182.69Zm-22,6.34,11-6.84a7,7,0,0,0-1.28-.59,6.46,6.46,0,0,0-2.32-.36,6.6,6.6,0,0,0-3.67,1.12,8.2,8.2,0,0,0-2.69,2.92A7.68,7.68,0,0,0,73.11,189Z" transform="translate(0.42 0.27)"/><path class="cls-2" d="M116.31,204.89V187.08q0-5.64-3.6-5.64a2.81,2.81,0,0,0-2.77,1.68,9.33,9.33,0,0,0-.78,4v17.1l-9.45.81V174.38l8.81-1v3.4a7.27,7.27,0,0,1,2.19-2.1,9.62,9.62,0,0,1,5.2-1.49,9.86,9.86,0,0,1,5.06,1.31,9.13,9.13,0,0,1,3.46,3.57,10.11,10.11,0,0,1,1.24,5v21.1Z" transform="translate(0.42 0.27)"/><path class="cls-2" d="M145.66,183v8.5a6.41,6.41,0,0,0,.44,2.83,3.5,3.5,0,0,0,1.61,1.37,9.36,9.36,0,0,0,2.55.5,18.22,18.22,0,0,0,2.18-.23q1-.16,1.47-.27l-2.74,9.4-.74,0c-.35,0-.79,0-1.31,0a14.52,14.52,0,0,1-7.71-1.85q-5.29-3-5.29-9.55V183h-5.06l2.41-8.4h2.94v-5.85l9.25-3.8v9.65h6.11V183Z" transform="translate(0.42 0.27)"/><path class="cls-2" d="M168.51,191.48v12.7l-9.95.95V174.48l9.31-1.15v5.06a8.33,8.33,0,0,1,3.4-3.58,9.77,9.77,0,0,1,4.9-1.28,10.45,10.45,0,0,1,1.51.08c.39,0,.67.09.83.13l-3,9.54a3.93,3.93,0,0,0-.51-.12,5.69,5.69,0,0,0-1-.07,8,8,0,0,0-2,.29,3.86,3.86,0,0,0-2.71,2.23,13.1,13.1,0,0,0-.74,4.32A9.76,9.76,0,0,1,168.51,191.48Z" transform="translate(0.42 0.27)"/><path class="cls-2" d="M209,183.18V204l-8.6,1v-2.56c0,.09-.32.38-1,.87a11.08,11.08,0,0,1-2.57,1.36,10.83,10.83,0,0,1-3.6.67,13,13,0,0,1-4.34-.73,11,11,0,0,1-3.62-2.11,9.72,9.72,0,0,1-2.46-3.36,10.54,10.54,0,0,1-.88-4.35,9.65,9.65,0,0,1,1.5-5.28,10.39,10.39,0,0,1,4.19-3.72,13.12,13.12,0,0,1,6-1.35,11.06,11.06,0,0,1,3.3.63,10,10,0,0,1,2.32,1.18,5.84,5.84,0,0,1,.83.64,10.56,10.56,0,0,0-.31-2.9,4,4,0,0,0-1.77-2.46,8.43,8.43,0,0,0-4.17-.79,11.25,11.25,0,0,0-3.22.55,34.37,34.37,0,0,0-3.4,1.21,12.93,12.93,0,0,0-1.68.79l1.74-8.49a16,16,0,0,1,1.94-.49c1.18-.25,2.43-.49,3.76-.7a28.77,28.77,0,0,1,3.6-.36,17.71,17.71,0,0,1,6.17,1,9.77,9.77,0,0,1,4.52,3.27A9,9,0,0,1,209,183.18Zm-9,11.5a3.58,3.58,0,0,0-1.35-2.85,5,5,0,0,0-3.35-1.15,5.09,5.09,0,0,0-3.05,1.09,3.48,3.48,0,0,0-1.36,2.66,3.65,3.65,0,0,0,1.28,2.89,5.75,5.75,0,0,0,6.56.16A3.26,3.26,0,0,0,200,194.68Z" transform="translate(0.42 0.27)"/><path class="cls-2" d="M216.23,205V163.84l9.55-1v41.2Z" transform="translate(0.42 0.27)"/><path class="cls-2" d="M269.32,189.43a34,34,0,0,1-5.85.6l-1.78-.08-1.06,0v14l-10.45.91v-41h11.55a33.76,33.76,0,0,1,6.86.64,16.68,16.68,0,0,1,5.5,2.15,10.47,10.47,0,0,1,3.79,4.07,13.14,13.14,0,0,1,1.39,6.33,13.64,13.64,0,0,1-2.31,7.5Q274.65,188.11,269.32,189.43Zm-7.15-16.7h-1.45v8.6h1.45q6.84,0,6.84-4.4c0-1.74-.67-2.87-1.9-3.4A12.73,12.73,0,0,0,262.17,172.73Z" transform="translate(0.42 0.27)"/><path class="cls-2" d="M310.06,183.18V204l-8.59,1v-2.56c0,.09-.33.38-1,.87a11.29,11.29,0,0,1-2.57,1.36,10.83,10.83,0,0,1-3.6.67,13,13,0,0,1-4.34-.73,11,11,0,0,1-3.62-2.11,9.72,9.72,0,0,1-2.46-3.36,10.54,10.54,0,0,1-.89-4.35,9.65,9.65,0,0,1,1.51-5.28,10.42,10.42,0,0,1,4.18-3.72,13.16,13.16,0,0,1,6-1.35,11.13,11.13,0,0,1,3.3.63,10.19,10.19,0,0,1,2.32,1.18,5.84,5.84,0,0,1,.83.64,11,11,0,0,0-.31-2.9,4.05,4.05,0,0,0-1.78-2.46,8.36,8.36,0,0,0-4.16-.79,11.31,11.31,0,0,0-3.23.55,34.15,34.15,0,0,0-3.39,1.21,12.93,12.93,0,0,0-1.68.79l1.74-8.49a15.41,15.41,0,0,1,1.94-.49c1.17-.25,2.43-.49,3.76-.7a28.77,28.77,0,0,1,3.6-.36,17.71,17.71,0,0,1,6.17,1,9.77,9.77,0,0,1,4.52,3.27A9.05,9.05,0,0,1,310.06,183.18Zm-9,11.5a3.56,3.56,0,0,0-1.36-2.85,5,5,0,0,0-3.34-1.15,5.09,5.09,0,0,0-3.05,1.09,3.45,3.45,0,0,0-1.36,2.66,3.65,3.65,0,0,0,1.28,2.89,5.73,5.73,0,0,0,6.55.16A3.26,3.26,0,0,0,301.07,194.68Z" transform="translate(0.42 0.27)"/><path class="cls-2" d="M326.17,191.48v12.7l-9.95.95V174.48l9.3-1.15v5.06a8.39,8.39,0,0,1,3.4-3.58,9.77,9.77,0,0,1,4.9-1.28,10.45,10.45,0,0,1,1.51.08c.39,0,.67.09.83.13l-3,9.54a4.09,4.09,0,0,0-.5-.12,5.88,5.88,0,0,0-1.05-.07,8,8,0,0,0-2.05.29,3.88,3.88,0,0,0-2.71,2.23,13.1,13.1,0,0,0-.74,4.32A9.5,9.5,0,0,1,326.17,191.48Z" transform="translate(0.42 0.27)"/><path class="cls-2" d="M360.92,205.33l-10.8-14.89V204l-9.5.91v-41l9.5-1.15v24.1l10.25-13.86,9.35,2.95-10.05,12.55L371,202.84Z" transform="translate(0.42 0.27)"/></svg>