<svg id="Layer_1" data-name="Layer 1" xmlns="http://www.w3.org/2000/svg" viewBox="0 0 400.42 400.92"><defs><style>.cls-1{fill:#ff6010;}.cls-2{fill:#fff;}</style></defs><title>downtown</title><rect class="cls-1" width="400.42" height="400.92"/><path class="cls-2" d="M63.55,204.74H52V164.49h12.2a28.6,28.6,0,0,1,11.7,2.23,17,17,0,0,1,7.75,6.72,20.93,20.93,0,0,1,2.81,11,19.7,19.7,0,0,1-1.77,8.43,18.7,18.7,0,0,1-4.94,6.45,22,22,0,0,1-7.31,4A27.75,27.75,0,0,1,63.55,204.74Zm-.84-31.25v21.85a17.74,17.74,0,0,0,7.81-1.47,8.9,8.9,0,0,0,4.21-3.93,12.3,12.3,0,0,0,1.23-5.6V184a11.17,11.17,0,0,0-1.79-6.41,8.7,8.7,0,0,0-4.52-3.19A24.73,24.73,0,0,0,62.71,173.49Z" transform="translate(0.42 0.27)"/><path class="cls-2" d="M107.9,173.39a18.86,18.86,0,0,1,6.87,1.21,16,16,0,0,1,5.4,3.37,15,15,0,0,1,3.49,5.12,16.39,16.39,0,0,1,1.24,6.41v.1a15.6,15.6,0,0,1-2.12,7.78,16.65,16.65,0,0,1-13.23,8.26l-.54,0-.51,0a17,17,0,0,1-6.18-1.16A17.42,17.42,0,0,1,97,201.24a16.33,16.33,0,0,1-3.72-5,14.58,14.58,0,0,1-1.46-6.08,16.74,16.74,0,0,1,8-14.4A16.3,16.3,0,0,1,107.9,173.39Zm.39,8.8a7,7,0,0,0-3.53,1.05,7.37,7.37,0,0,0-2.56,2.67,7.1,7.1,0,0,0-.94,3.59,6.78,6.78,0,0,0,2.14,5.06,7.05,7.05,0,0,0,5.1,2.09,7.55,7.55,0,0,0,3.62-1,7.21,7.21,0,0,0,2.61-2.62,7.14,7.14,0,0,0,0-7.24,7.15,7.15,0,0,0-2.7-2.62A7.43,7.43,0,0,0,108.29,182.19Z" transform="translate(0.42 0.27)"/><path class="cls-2" d="M149.4,189.39l-8,16.8-13.54-31.25,9.44-1.05,4.8,14.25,7.5-15.65,7.34,15.15,4.86-13.75,9.4.75-13.6,31.84Z" transform="translate(0.42 0.27)"/><path class="cls-2" d="M191.6,205.54V187.73q0-5.64-3.6-5.64a2.8,2.8,0,0,0-2.77,1.68,9.33,9.33,0,0,0-.78,4v17.11l-9.45.8V175l8.8-1v3.39a7.53,7.53,0,0,1,2.19-2.1,10.08,10.08,0,0,1,10.26-.17,9.09,9.09,0,0,1,3.47,3.57,10.15,10.15,0,0,1,1.23,4.95v21.11Z" transform="translate(0.42 0.27)"/><path class="cls-2" d="M221,183.63v8.51a6.33,6.33,0,0,0,.44,2.83,3.5,3.5,0,0,0,1.61,1.37,9.58,9.58,0,0,0,2.55.5,20.34,20.34,0,0,0,2.17-.23c.68-.11,1.18-.2,1.48-.27l-2.75,9.4-.73,0-1.32,0a14.37,14.37,0,0,1-7.7-1.86q-5.3-3-5.3-9.54V183.63h-5.05l2.4-8.4h2.94v-5.84l9.26-3.8v9.64h6.1v8.4Z" transform="translate(0.42 0.27)"/><path class="cls-2" d="M249.2,173.39a18.93,18.93,0,0,1,6.87,1.21,16.2,16.2,0,0,1,5.4,3.37,15.18,15.18,0,0,1,3.49,5.12,16.57,16.57,0,0,1,1.24,6.41v.1a15.71,15.71,0,0,1-2.12,7.78,16.65,16.65,0,0,1-13.23,8.26l-.54,0-.51,0a17,17,0,0,1-6.18-1.16,17.31,17.31,0,0,1-5.33-3.29,16.33,16.33,0,0,1-3.72-5,14.75,14.75,0,0,1-1.47-6.08,16.78,16.78,0,0,1,8.05-14.4A16.3,16.3,0,0,1,249.2,173.39Zm.39,8.8a7.1,7.1,0,0,0-3.54,1.05,7.42,7.42,0,0,0-2.55,2.67,7.11,7.11,0,0,0-.95,3.59,6.82,6.82,0,0,0,2.14,5.06,7.08,7.08,0,0,0,5.11,2.09,7.51,7.51,0,0,0,3.61-1A7.16,7.16,0,0,0,256,193a7.21,7.21,0,0,0,0-7.24,7.15,7.15,0,0,0-2.7-2.62A7.46,7.46,0,0,0,249.59,182.19Z" transform="translate(0.42 0.27)"/><path class="cls-2" d="M290.7,189.39l-8,16.8-13.55-31.25,9.45-1.05,4.8,14.25,7.49-15.65,7.35,15.15,4.86-13.75,9.4.75-13.6,31.84Z" transform="translate(0.42 0.27)"/><path class="cls-2" d="M332.9,205.54V187.73q0-5.64-3.6-5.64a2.8,2.8,0,0,0-2.77,1.68,9.18,9.18,0,0,0-.79,4v17.11l-9.45.8V175l8.81-1v3.39a7.4,7.4,0,0,1,2.19-2.1,10.08,10.08,0,0,1,10.26-.17,9.07,9.07,0,0,1,3.46,3.57,10,10,0,0,1,1.24,4.95v21.11Z" transform="translate(0.42 0.27)"/></svg>