<svg id="Layer_1" data-name="Layer 1" xmlns="http://www.w3.org/2000/svg" viewBox="0 0 400.42 400.92"><defs><style>.cls-1{fill:#4270b7;}.cls-2{fill:#fffeff;}</style></defs><title>midtown</title><rect class="cls-1" width="400.42" height="400.92"/><path class="cls-2" d="M80.37,201.6l11-42.4,12.9,26.39,13.41-26.29,10.64,42.2-10.35.9-3.35-17.91-10.35,20.3-10-20.49-3.6,18.44Z" transform="translate(0.42 0.27)"/><path class="cls-2" d="M141.53,169.75,135,164.69l5.75-5.94,7,4.94Zm-5,2.15,9.45-1.15V201.4l-9.45.7Z" transform="translate(0.42 0.27)"/><path class="cls-2" d="M168,203a15.45,15.45,0,0,1-7.88-2.08,15.76,15.76,0,0,1-5.73-5.68,16.23,16.23,0,0,1-2.25-7.95,17.51,17.51,0,0,1,1.15-6.27,16.81,16.81,0,0,1,3.24-5.31,15.51,15.51,0,0,1,4.92-3.61,14.27,14.27,0,0,1,6-1.3,11.35,11.35,0,0,1,8.4,3.1v-12.4l9.4-1.15v41.39l-9.11.91v-2.86a12.92,12.92,0,0,1-2.9,2A12.25,12.25,0,0,1,168,203Zm-6.55-17a9.37,9.37,0,0,0,.92,4.3,7.28,7.28,0,0,0,2.45,2.87,6.83,6.83,0,0,0,3.28,1.18,9.6,9.6,0,0,0,4-.85,7.65,7.65,0,0,0,2.94-2.37,6.9,6.9,0,0,0,1.31-3.44,9.21,9.21,0,0,0-1-4.21,7.88,7.88,0,0,0-2.62-3,6.85,6.85,0,0,0-3.67-1.17,8.06,8.06,0,0,0-6.46,3.35A6.51,6.51,0,0,0,161.43,186Z" transform="translate(0.42 0.27)"/><path class="cls-2" d="M206.82,180.49V189a6.39,6.39,0,0,0,.44,2.82,3.54,3.54,0,0,0,1.62,1.38,9.58,9.58,0,0,0,2.55.5,20.34,20.34,0,0,0,2.17-.23l1.48-.27-2.75,9.4-.73,0h-1.32a14.37,14.37,0,0,1-7.7-1.85q-5.31-3-5.3-9.55V180.49h-5.06l2.41-8.4h2.94v-5.85l9.25-3.79v9.64h6.11v8.4Z" transform="translate(0.42 0.27)"/><path class="cls-2" d="M235.08,170.25a18.93,18.93,0,0,1,6.87,1.21,15.9,15.9,0,0,1,5.39,3.37,15.06,15.06,0,0,1,3.5,5.12,16.52,16.52,0,0,1,1.24,6.4v.1a15.75,15.75,0,0,1-2.12,7.79,16.4,16.4,0,0,1-5.58,5.77,16.57,16.57,0,0,1-7.66,2.49l-.53,0-.52,0a16.79,16.79,0,0,1-6.18-1.17,17.19,17.19,0,0,1-5.32-3.29,16.09,16.09,0,0,1-3.72-5A14.67,14.67,0,0,1,219,187a16.74,16.74,0,0,1,8-14.39A16.24,16.24,0,0,1,235.08,170.25Zm.39,8.8a6.85,6.85,0,0,0-3.54,1,7.47,7.47,0,0,0-2.55,2.66,7.17,7.17,0,0,0-.95,3.59,6.8,6.8,0,0,0,2.14,5.07,7.07,7.07,0,0,0,5.11,2.08,7.41,7.41,0,0,0,6.23-3.63,7.21,7.21,0,0,0,0-7.24,7.3,7.3,0,0,0-2.7-2.62A7.46,7.46,0,0,0,235.47,179.05Z" transform="translate(0.42 0.27)"/><path class="cls-2" d="M276.58,186.25l-8,16.8L255,171.8l9.45-1.05,4.8,14.24,7.49-15.65,7.35,15.15L289,170.75l9.4.74-13.6,31.85Z" transform="translate(0.42 0.27)"/><path class="cls-2" d="M318.77,202.4V184.59q0-5.64-3.6-5.64a2.81,2.81,0,0,0-2.77,1.68,9.33,9.33,0,0,0-.78,4v17.1l-9.45.81V171.9l8.8-1.05v3.39a7.47,7.47,0,0,1,2.2-2.1,9.62,9.62,0,0,1,5.2-1.49,9.86,9.86,0,0,1,5.06,1.31,9.2,9.2,0,0,1,3.46,3.57,10.22,10.22,0,0,1,1.24,5V201.6Z" transform="translate(0.42 0.27)"/></svg>