<svg id="Layer_1" data-name="Layer 1" xmlns="http://www.w3.org/2000/svg" viewBox="0 0 400.42 400.92"><defs><style>.cls-1{fill:#b8529e;}.cls-2{fill:#fff;}</style></defs><title>wsq</title><rect class="cls-1" width="400.42" height="400.92"/><path class="cls-2" d="M153.85,153.37,164,174.16l6.16-19.24,10.24,1.15-15.15,42.6-11.7-23.85-11.9,23.85-14.5-42.6,10.45-1.26,5.8,19.56Z" transform="translate(0.42 0.27)"/><path class="cls-2" d="M212.66,160.37l-6,7.16c0-.15-.27-.49-.81-1a7.88,7.88,0,0,0-2.34-1.5,9.61,9.61,0,0,0-3.69-.73,5.2,5.2,0,0,0-2.7.67,2.55,2.55,0,0,0-1.31,2,2.87,2.87,0,0,0,.66,1.94,4.83,4.83,0,0,0,1.7,1.24,20.9,20.9,0,0,0,3,1l2,.58a15.71,15.71,0,0,1,5.66,2.86,10.1,10.1,0,0,1,3,4.18,17.17,17.17,0,0,1,1,5.65,12,12,0,0,1-7,11.3,18.13,18.13,0,0,1-7.56,1.74,20.44,20.44,0,0,1-7-1.19,26.08,26.08,0,0,1-5.24-2.48,19.41,19.41,0,0,1-2.46-1.77l6.25-7.51a12.31,12.31,0,0,0,2.77,2.13,9.75,9.75,0,0,0,5.22,1.28,8.77,8.77,0,0,0,3.36-.87,2.76,2.76,0,0,0,1.24-2.54,2.55,2.55,0,0,0-1.55-2.34,23.68,23.68,0,0,0-4.6-1.69,22.29,22.29,0,0,1-4.1-1.46,20.07,20.07,0,0,1-3.34-2.31,10.47,10.47,0,0,1-2.53-3.52,12.9,12.9,0,0,1-1.08-5.57,12,12,0,0,1,1.9-6.37,13.1,13.1,0,0,1,4.9-4.53,14.15,14.15,0,0,1,6.61-1.7,21.53,21.53,0,0,1,5.87.74,18.28,18.28,0,0,1,4.36,1.74,15.59,15.59,0,0,1,2.71,1.92Z" transform="translate(0.42 0.27)"/><path class="cls-2" d="M239.81,154.92a26.7,26.7,0,0,1,8.69,1.41,22.46,22.46,0,0,1,7.3,4.1,19.62,19.62,0,0,1,5,6.57,21.06,21.06,0,0,1,.74,15.89,24.38,24.38,0,0,1-3,5.93l6.9,6.14-9,4.1-5-4.89a24.74,24.74,0,0,1-3.92,1.91,18,18,0,0,1-6.23,1.23,23.9,23.9,0,0,1-8.64-1.55,22,22,0,0,1-7.12-4.38,21,21,0,0,1-4.78-6.58,20.1,20.1,0,0,1-1.81-8,22.44,22.44,0,0,1,2.71-10.9,20.77,20.77,0,0,1,18.19-10.94Zm1.45,9.66a12.71,12.71,0,0,0-4.62.84,11.84,11.84,0,0,0-3.85,2.44,11.44,11.44,0,0,0-2.63,3.81,12.47,12.47,0,0,0-1,4.85.1.1,0,0,1,.07,0s0,0,0,0a11.21,11.21,0,0,0,1.35,5.21,11.5,11.5,0,0,0,8.39,5.93,9.59,9.59,0,0,1,1.36.21,19,19,0,0,0,3.45-.81l-5.31-4.75,8-3.89,4.1,3.6a10.27,10.27,0,0,0,1.7-5.65,12.26,12.26,0,0,0-5.46-10.13A10.25,10.25,0,0,0,241.26,164.58Z" transform="translate(0.42 0.27)"/></svg>